<svg xmlns="http://www.w3.org/2000/svg" version="1.1" xmlns:xlink="http://www.w3.org/1999/xlink" width="512" height="512" x="0" y="0" viewBox="0 0 60 60" style="enable-background:new 0 0 512 512" xml:space="preserve" class=""><g><path d="M25.561 23.396c-.29-.29-.67-.45-1.08-.45-.41 0-.8.16-1.08.45-.29.29-.45.67-.45 1.08 0 .41.16.79.45 1.08l5.6 5.61c.6.6 1.57.6 2.17 0 .6-.6.6-1.57 0-2.17z" fill="#000000" opacity="1" data-original="#000000" class=""></path><path d="M48.081 30.786a7.97 7.97 0 0 0-3.74-2.12l-.33-.09a5.638 5.638 0 0 1-4.27-6c.15-1.72-.47-3.4-1.69-4.62l-7.51-7.52c-1.19-1.19-3.11-1.38-4.54-.59l-4.55-4.55c-.39-.39-1.02-.39-1.42 0a.996.996 0 0 0 0 1.41l1.37 1.37-1.53 1.53-1.37-1.37c-.39-.39-1.02-.39-1.41 0s-.39 1.03 0 1.42l1.37 1.37-1.54 1.53-1.37-1.37c-.39-.39-1.02-.39-1.41 0s-.39 1.02 0 1.42l1.37 1.36-1.54 1.54-1.36-1.37c-.4-.39-1.03-.39-1.42 0a.996.996 0 0 0 0 1.41l1.37 1.37-1.53 1.54-1.37-1.37c-.39-.39-1.03-.39-1.42 0a.996.996 0 0 0 0 1.41l1.37 1.37-1.53 1.53-1.37-1.36a.978.978 0 0 0-1.41 0c-.4.39-.4 1.02 0 1.41l4.55 4.55a3.61 3.61 0 0 0-.51 1.88c0 1 .39 1.95 1.1 2.66l7.76 7.76a5.795 5.795 0 0 0 3.92 1.7l.57.02c2.35.08 4.47 1.54 5.38 3.71l.58 1.37c.41.97.99 1.84 1.73 2.58l3.75 3.74c2.38 2.39 5.51 3.58 8.64 3.58s6.27-1.2 8.65-3.58c4.77-4.77 4.77-12.53 0-17.29zm-15.49 1.8a3.551 3.551 0 0 1-5 0l-5.61-5.61a3.537 3.537 0 0 1 0-5c1.34-1.33 3.66-1.33 5 0l5.61 5.61a3.555 3.555 0 0 1 0 5z" fill="#000000" opacity="1" data-original="#000000" class=""></path></g></svg>