<svg xmlns="http://www.w3.org/2000/svg" version="1.1" xmlns:xlink="http://www.w3.org/1999/xlink" width="512" height="512" x="0" y="0" viewBox="0 0 503.384 503.384" style="enable-background:new 0 0 512 512" xml:space="preserve" class=""><g><path d="M503.384 22.895 482.171 1.682l-17.894 17.893-17.893-17.893-21.213 21.213 17.893 17.893-17.893 17.894 21.213 21.213 17.893-17.894 17.894 17.894 21.213-21.213-17.894-17.894zM-.008 194.146 188.61 5.527l37.147 37.147-188.62 188.62zM262.952 79.816l-15.939-15.939L58.365 252.524l15.939 15.939c11.716 11.716 30.711 11.716 42.426 0l146.221-146.221c11.717-11.716 11.717-30.711.001-42.426zM286.073 224.892l-22.74 22.74-39.005-39.006-21.213 21.213 39.006 39.006-22.74 22.739 151.752 151.753 66.693-66.693zM392.259 464.547l66.682-66.683 37.147 37.147-66.683 66.683z" fill="#000000" opacity="1" data-original="#000000" class=""></path></g></svg>